<mxfile host="app.diagrams.net" agent="Mozilla/5.0 (Windows NT 10.0; Win64; x64) AppleWebKit/537.36 (KHTML, like Gecko) Chrome/136.0.0.0 Safari/537.36" version="27.1.3">
  <diagram name="Страница — 1" id="W-EvImlPo9E4I9viiaKT">
    <mxGraphModel dx="906" dy="916" grid="1" gridSize="10" guides="1" tooltips="1" connect="1" arrows="1" fold="1" page="1" pageScale="1" pageWidth="827" pageHeight="1169" math="0" shadow="0">
      <root>
        <mxCell id="0" />
        <mxCell id="1" parent="0" />
        <mxCell id="5eEkYxxqKPAK5HfxrFUa-1" style="edgeStyle=orthogonalEdgeStyle;rounded=0;orthogonalLoop=1;jettySize=auto;html=1;" edge="1" parent="1" source="5eEkYxxqKPAK5HfxrFUa-2" target="5eEkYxxqKPAK5HfxrFUa-4">
          <mxGeometry relative="1" as="geometry" />
        </mxCell>
        <mxCell id="5eEkYxxqKPAK5HfxrFUa-2" value="&lt;font style=&quot;background-color: light-dark(#ffffff, var(--ge-dark-color, #121212)); color: rgb(0, 0, 0);&quot;&gt;Начало&lt;/font&gt;&lt;div&gt;&lt;div style=&quot;font-family: Consolas, &amp;quot;Courier New&amp;quot;, monospace; line-height: 19px; white-space: pre;&quot;&gt;print_error&lt;/div&gt;&lt;/div&gt;" style="rounded=1;whiteSpace=wrap;html=1;arcSize=50;fontFamily=Consolas;fontSize=14;" vertex="1" parent="1">
          <mxGeometry x="319" y="110" width="190" height="50.5" as="geometry" />
        </mxCell>
        <mxCell id="5eEkYxxqKPAK5HfxrFUa-25" value="" style="edgeStyle=orthogonalEdgeStyle;rounded=0;orthogonalLoop=1;jettySize=auto;html=1;" edge="1" parent="1" source="5eEkYxxqKPAK5HfxrFUa-4" target="5eEkYxxqKPAK5HfxrFUa-24">
          <mxGeometry relative="1" as="geometry" />
        </mxCell>
        <mxCell id="5eEkYxxqKPAK5HfxrFUa-4" value="&lt;div style=&quot;font-family: Consolas, &amp;quot;Courier New&amp;quot;, monospace; line-height: 19px; white-space: pre;&quot;&gt;&lt;div style=&quot;&quot;&gt;&lt;div style=&quot;line-height: 19px;&quot;&gt;&lt;div style=&quot;&quot;&gt;Включаем вывод &lt;/div&gt;&lt;div style=&quot;&quot;&gt;красного цвета&lt;/div&gt;&lt;/div&gt;&lt;/div&gt;&lt;/div&gt;" style="whiteSpace=wrap;html=1;fontSize=14;fontFamily=Consolas;rounded=1;arcSize=0;" vertex="1" parent="1">
          <mxGeometry x="334" y="190" width="160" height="70" as="geometry" />
        </mxCell>
        <mxCell id="5eEkYxxqKPAK5HfxrFUa-19" value="" style="edgeStyle=orthogonalEdgeStyle;rounded=0;orthogonalLoop=1;jettySize=auto;html=1;exitX=0.5;exitY=1;exitDx=0;exitDy=0;" edge="1" parent="1" source="5eEkYxxqKPAK5HfxrFUa-22" target="5eEkYxxqKPAK5HfxrFUa-21">
          <mxGeometry relative="1" as="geometry">
            <mxPoint x="434" y="420" as="sourcePoint" />
          </mxGeometry>
        </mxCell>
        <mxCell id="5eEkYxxqKPAK5HfxrFUa-21" value="Конец" style="whiteSpace=wrap;html=1;fontSize=14;fontFamily=Consolas;rounded=1;arcSize=50;" vertex="1" parent="1">
          <mxGeometry x="354.0049999999999" y="460" width="120" height="60" as="geometry" />
        </mxCell>
        <mxCell id="5eEkYxxqKPAK5HfxrFUa-22" value="&lt;div style=&quot;font-family: Consolas, &amp;quot;Courier New&amp;quot;, monospace; line-height: 19px; white-space: pre;&quot;&gt;&lt;div style=&quot;&quot;&gt;&lt;div style=&quot;line-height: 19px;&quot;&gt;&lt;div style=&quot;&quot;&gt;Выключаем вывод &lt;/div&gt;&lt;div style=&quot;&quot;&gt;красного цвета&lt;/div&gt;&lt;/div&gt;&lt;/div&gt;&lt;/div&gt;" style="whiteSpace=wrap;html=1;fontSize=14;fontFamily=Consolas;rounded=1;arcSize=0;" vertex="1" parent="1">
          <mxGeometry x="334" y="370" width="160" height="70" as="geometry" />
        </mxCell>
        <mxCell id="5eEkYxxqKPAK5HfxrFUa-26" style="edgeStyle=orthogonalEdgeStyle;rounded=0;orthogonalLoop=1;jettySize=auto;html=1;entryX=0.5;entryY=0;entryDx=0;entryDy=0;" edge="1" parent="1" source="5eEkYxxqKPAK5HfxrFUa-24" target="5eEkYxxqKPAK5HfxrFUa-22">
          <mxGeometry relative="1" as="geometry" />
        </mxCell>
        <mxCell id="5eEkYxxqKPAK5HfxrFUa-24" value="Вывод ошибки" style="shape=parallelogram;perimeter=parallelogramPerimeter;whiteSpace=wrap;html=1;fixedSize=1;fontSize=14;fontFamily=Consolas;rounded=1;arcSize=0;" vertex="1" parent="1">
          <mxGeometry x="341" y="285" width="146" height="55" as="geometry" />
        </mxCell>
      </root>
    </mxGraphModel>
  </diagram>
</mxfile>
